<svg width="105" height="105" viewBox="0 0 105 105" fill="none" xmlns="http://www.w3.org/2000/svg">
<path d="M10.6066 62.9325C4.74874 57.0746 4.74874 47.5772 10.6066 41.7193L41.7193 10.6066C47.5772 4.74873 57.0746 4.74873 62.9325 10.6066L94.0452 41.7193C99.9031 47.5772 99.9031 57.0746 94.0452 62.9325L62.9325 94.0452C57.0746 99.9031 47.5772 99.9031 41.7193 94.0452L10.6066 62.9325Z" fill="url(#paint0_linear_14_180)"/>
<path d="M46.3259 65.8259C46.3259 69.968 42.9681 73.3259 38.8259 73.3259C34.6838 73.3259 31.3259 69.968 31.3259 65.8259C31.3259 61.6838 34.6838 58.3259 38.8259 58.3259C42.9681 58.3259 46.3259 61.6838 46.3259 65.8259Z" fill="#B9C5EF"/>
<path fill-rule="evenodd" clip-rule="evenodd" d="M31.3259 37.3259C31.3259 34.5645 33.5645 32.3259 36.3259 32.3259H69.3259C72.0874 32.3259 74.3259 34.5645 74.3259 37.3259V70.3259C74.3259 73.0873 72.0874 75.3259 69.3259 75.3259C66.5645 75.3259 64.3259 73.0873 64.3259 70.3259V42.3259H36.3259C33.5645 42.3259 31.3259 40.0873 31.3259 37.3259Z" fill="white"/>
<defs>
<linearGradient id="paint0_linear_14_180" x1="26.163" y1="26.1629" x2="78.4889" y2="78.4888" gradientUnits="userSpaceOnUse">
<stop stop-color="#719AEA"/>
<stop offset="1" stop-color="#385AD2"/>
</linearGradient>
</defs>
</svg>
